<svg fill="none" height="17" viewBox="0 0 18 17" width="18" xmlns="http://www.w3.org/2000/svg"><path d="M6.75 0.75H11.25C12.0784 0.75 12.75 1.42157 12.75 2.25V3H15C15.8284 3 16.5 3.67157 16.5 4.5V6C16.5 6.82843 15.8284 7.5 15 7.5H14.9399L14.25 15.75C14.25 16.5784 13.5784 17.25 12.75 17.25H5.25C4.42157 17.25 3.75 16.5784 3.75259 15.8123L3.0599 7.5H3C2.17157 7.5 1.5 6.82843 1.5 6V4.5C1.5 3.67157 2.17157 3 3 3H5.25V2.25C5.25 1.42157 5.92157 0.75 6.75 0.75ZM3 4.5H5.25H12.75H15V6H3V4.5ZM4.56485 7.5H13.4349L12.7526 15.6877L12.75 15.75H5.24998L4.56485 7.5ZM11.25 2.25V3H6.75V2.25H11.25ZM6.21968 9.53033L7.28034 8.46967L9.00001 10.1893L10.7197 8.46967L11.7803 9.53033L10.0607 11.25L11.7803 12.9697L10.7197 14.0303L9.00001 12.3107L7.28034 14.0303L6.21968 12.9697L7.93935 11.25L6.21968 9.53033Z" fill="black"/></svg>